<?xml version="1.0" standalone="no"?>
<!DOCTYPE svg PUBLIC "-//W3C//DTD SVG 20010904//EN"
 "http://www.w3.org/TR/2001/REC-SVG-20010904/DTD/svg10.dtd">
<svg version="1.0" xmlns="http://www.w3.org/2000/svg"
 width="504.000000pt" height="74.000000pt" viewBox="0 0 504.000000 74.000000"
 preserveAspectRatio="xMidYMid meet">

<g transform="translate(0.000000,74.000000) scale(0.100000,-0.100000)"
fill="#000000" stroke="none">
<path d="M358 569 c-42 -74 -83 -149 -92 -166 -19 -39 -25 -24 92 -232 l75
-133 186 7 c102 4 186 8 187 9 17 22 174 308 174 317 0 6 -39 81 -87 165 l-88
153 -90 1 c-49 0 -133 3 -186 6 l-96 7 -75 -134z m427 101 c3 -5 -6 -17 -20
-26 -21 -14 -46 -16 -158 -12 -138 5 -167 11 -167 34 0 11 31 14 169 14 97 0
172 -4 176 -10z m21 -185 c30 -55 54 -109 54 -120 0 -11 -26 -65 -58 -120
l-57 -100 -130 0 -129 0 -58 100 c-70 120 -70 126 2 254 l52 92 135 -3 136 -3
53 -100z m-38 -391 c12 -8 20 -20 17 -25 -9 -13 -332 -12 -340 2 -16 25 39 37
185 38 90 1 121 -2 138 -15z"/>
<path d="M110 518 c-41 -73 -76 -137 -78 -144 -2 -6 34 -75 79 -153 l83 -143
26 53 27 52 -49 83 c-26 45 -48 93 -48 106 0 12 23 59 49 103 l49 79 -24 48
c-13 26 -28 48 -32 48 -4 0 -41 -60 -82 -132z"/>
<path d="M1010 601 c-23 -47 -21 -57 41 -162 l40 -69 -54 -96 -55 -96 20 -34
c25 -42 38 -51 49 -33 75 121 138 239 139 257 0 19 -70 152 -134 254 -16 26
-23 23 -46 -21z"/>
<path d="M1596 441 c-96 -10 -79 -41 22 -41 l42 0 0 -74 c0 -86 6 -106 30
-106 21 0 30 36 30 121 l0 59 48 0 c46 0 95 21 76 32 -16 9 -186 15 -248 9z"/>
<path d="M2378 443 c-40 -3 -58 -8 -58 -17 0 -17 31 -26 87 -26 l42 0 3 -87
c3 -80 5 -88 23 -88 18 0 20 8 23 88 l3 87 44 0 c51 0 102 17 89 29 -11 11
-177 19 -256 14z"/>
<path d="M3508 445 c-9 -10 -10 -170 -2 -203 9 -30 25 -23 39 17 20 59 61 67
102 20 48 -53 117 -78 149 -54 16 13 17 16 4 25 -8 5 -26 10 -40 10 -30 0 -73
27 -65 41 4 5 19 9 35 9 42 0 80 20 86 46 8 30 -11 63 -43 75 -33 12 -256 24
-265 14z m246 -51 c9 -3 16 -12 16 -19 0 -20 -24 -25 -118 -25 -98 0 -124 9
-103 34 10 12 34 16 101 16 49 0 95 -3 104 -6z"/>
<path d="M3890 337 l0 -117 154 0 c153 0 196 9 141 30 -14 6 -73 10 -131 10
-85 0 -106 3 -111 15 -9 25 3 30 85 35 60 4 77 8 77 20 0 12 -17 16 -77 20
-82 5 -94 10 -85 35 5 12 26 15 111 15 107 0 168 12 150 30 -6 6 -78 13 -162
17 l-152 6 0 -116z"/>
<path d="M1937 434 c-12 -13 -7 -113 7 -148 36 -87 217 -90 279 -4 15 19 20
44 21 90 1 57 -1 63 -20 66 -18 3 -22 -4 -27 -35 -4 -21 -7 -52 -7 -69 0 -49
-26 -64 -106 -64 -95 0 -108 10 -114 96 -5 62 -16 85 -33 68z"/>
<path d="M2963 430 c-32 -13 -43 -41 -43 -114 0 -89 11 -96 150 -96 122 0 139
7 149 67 13 66 0 125 -29 140 -29 15 -193 17 -227 3z m217 -100 l0 -60 -110 0
-110 0 0 60 0 60 110 0 110 0 0 -60z"/>
<path d="M4360 333 c-76 -102 -92 -133 -71 -133 5 0 28 18 51 40 40 38 45 40
105 40 60 0 67 -2 110 -40 47 -41 65 -49 65 -29 0 16 -160 229 -171 229 -5 0
-45 -48 -89 -107z m108 25 c19 -19 14 -28 -18 -28 -16 0 -30 4 -30 8 0 9 21
32 30 32 3 0 11 -5 18 -12z"/>
<path d="M4697 433 c-4 -3 -7 -53 -7 -110 l0 -103 154 0 c153 0 196 9 141 30
-14 6 -78 10 -141 10 l-114 0 0 74 c0 93 -10 123 -33 99z"/>
<path d="M2705 341 c-12 -20 27 -41 75 -41 49 0 70 16 47 39 -13 13 -113 15
-122 2z"/>
<path d="M3310 335 c-19 -23 -2 -35 48 -35 55 0 77 11 69 34 -8 21 -99 22
-117 1z"/>
</g>
</svg>
