<?xml version="1.0" standalone="no"?>
<!DOCTYPE svg PUBLIC "-//W3C//DTD SVG 20010904//EN"
 "http://www.w3.org/TR/2001/REC-SVG-20010904/DTD/svg10.dtd">
<svg version="1.0" xmlns="http://www.w3.org/2000/svg"
 width="454.000000pt" height="139.000000pt" viewBox="0 0 454.000000 139.000000"
 preserveAspectRatio="xMidYMid meet">

<g transform="translate(0.000000,139.000000) scale(0.100000,-0.100000)"
fill="#000000" stroke="none">
<path d="M618 771 c-38 -65 -68 -122 -68 -126 0 -4 30 -61 68 -126 l67 -119
140 2 140 3 67 115 c37 63 67 120 67 125 0 6 -30 62 -67 125 l-67 115 -140 2
-140 3 -67 -119z m332 89 c-10 -18 -21 -20 -123 -20 -107 0 -137 7 -137 32 0
4 61 8 135 8 133 0 135 0 125 -20z m20 -131 c25 -44 44 -85 42 -91 -1 -6 -23
-46 -48 -89 l-46 -79 -93 0 -94 0 -39 68 c-22 37 -44 76 -50 88 -9 17 -3 34
36 102 l46 82 100 0 101 0 45 -81z m-20 -299 c10 -20 8 -20 -125 -20 -74 0
-135 4 -135 8 0 25 30 32 137 32 102 0 113 -2 123 -20z"/>
<path d="M444 752 l-62 -107 23 -40 c13 -22 41 -71 63 -109 l40 -69 20 39 20
39 -39 65 c-21 36 -38 70 -38 75 0 6 17 39 39 74 l39 64 -20 39 c-11 21 -20
38 -22 38 -1 0 -30 -49 -63 -108z"/>
<path d="M1118 816 c-16 -33 -16 -34 23 -101 21 -37 39 -69 39 -70 0 -2 -18
-35 -40 -73 l-40 -70 17 -31 c10 -17 21 -31 24 -31 8 0 119 192 119 205 0 14
-110 205 -119 205 -4 0 -15 -15 -23 -34z"/>
<path d="M1510 685 c0 -11 12 -15 50 -15 l50 0 0 -70 c0 -63 2 -70 20 -70 18
0 20 7 20 70 l0 70 50 0 c38 0 50 4 50 15 0 13 -20 15 -120 15 -100 0 -120 -2
-120 -15z"/>
<path d="M1810 642 c0 -72 25 -102 93 -109 96 -11 147 31 147 122 0 38 -3 45
-20 45 -18 0 -20 -7 -20 -54 0 -67 -15 -81 -85 -81 -70 0 -85 14 -85 81 0 41
-4 54 -15 54 -12 0 -15 -13 -15 -58z"/>
<path d="M2100 685 c0 -11 12 -15 50 -15 l50 0 0 -70 c0 -63 2 -70 20 -70 18
0 20 7 20 70 l0 70 50 0 c38 0 50 4 50 15 0 13 -20 15 -120 15 -100 0 -120 -2
-120 -15z"/>
<path d="M2580 688 c-22 -12 -25 -21 -28 -73 -4 -77 6 -85 113 -85 105 0 116
8 117 84 0 31 -5 63 -11 69 -17 17 -160 21 -191 5z m168 -75 l-3 -48 -80 0
-80 0 -3 48 -3 47 86 0 86 0 -3 -47z"/>
<path d="M2990 615 c0 -67 3 -85 14 -85 9 0 16 12 18 33 3 28 7 32 35 35 24 2
33 -1 38 -18 13 -40 125 -72 125 -35 0 9 -10 15 -26 15 -29 0 -64 16 -64 30 0
6 15 10 34 10 60 0 84 42 46 80 -17 17 -33 20 -120 20 l-100 0 0 -85z m199 42
c18 -22 2 -27 -86 -27 -62 0 -83 3 -83 13 0 23 11 27 85 27 49 0 76 -4 84 -13z"/>
<path d="M3280 615 l0 -85 120 0 c100 0 120 3 120 15 0 12 -18 15 -100 15 -93
0 -100 1 -100 20 0 18 7 20 65 20 51 0 65 3 65 15 0 12 -14 15 -65 15 -58 0
-65 2 -65 20 0 19 7 20 100 20 82 0 100 3 100 15 0 13 -20 15 -120 15 l-120 0
0 -85z"/>
<path d="M3632 616 c-34 -46 -62 -86 -62 -90 0 -17 32 -2 52 24 19 27 27 30
76 30 47 0 56 -4 79 -30 22 -27 53 -40 53 -24 0 9 -123 174 -130 174 -3 0 -34
-38 -68 -84z m86 14 c11 -18 10 -20 -18 -20 -28 0 -29 2 -18 20 7 11 15 20 18
20 3 0 11 -9 18 -20z"/>
<path d="M3880 615 l0 -85 120 0 c100 0 120 3 120 15 0 12 -18 15 -105 15
l-105 0 0 70 c0 56 -3 70 -15 70 -12 0 -15 -16 -15 -85z"/>
<path d="M2392 613 c2 -14 15 -19 51 -21 42 -3 47 -1 47 17 0 18 -6 21 -51 21
-43 0 -50 -3 -47 -17z"/>
<path d="M2840 609 c0 -18 5 -20 47 -17 36 2 49 7 51 21 3 14 -4 17 -47 17
-45 0 -51 -3 -51 -21z"/>
</g>
</svg>
