<?xml version="1.0" standalone="no"?>
<!DOCTYPE svg PUBLIC "-//W3C//DTD SVG 20010904//EN"
 "http://www.w3.org/TR/2001/REC-SVG-20010904/DTD/svg10.dtd">
<svg version="1.0" xmlns="http://www.w3.org/2000/svg"
 width="104.000000pt" height="90.000000pt" viewBox="0 0 104.000000 90.000000"
 preserveAspectRatio="xMidYMid meet">

<g transform="translate(0.000000,90.000000) scale(0.100000,-0.100000)"
fill="#000000" stroke="none">
<path d="M318 571 c-38 -65 -68 -122 -68 -126 0 -4 30 -61 68 -126 l67 -119
140 2 140 3 67 115 c37 63 67 120 67 125 0 6 -30 62 -67 125 l-67 115 -140 2
-140 3 -67 -119z m330 92 c-3 -16 -18 -18 -117 -21 -108 -3 -141 4 -141 29 0
5 59 9 131 9 119 0 130 -2 127 -17z m22 -134 c25 -44 44 -85 42 -91 -1 -6 -23
-46 -48 -89 l-46 -79 -93 0 -94 0 -39 68 c-22 37 -44 76 -50 88 -9 17 -3 34
36 102 l46 82 100 0 101 0 45 -81z m-20 -299 c10 -20 8 -20 -125 -20 -74 0
-135 4 -135 8 0 25 30 32 137 32 102 0 113 -2 123 -20z"/>
<path d="M144 552 l-62 -107 23 -40 c13 -22 41 -71 63 -109 l40 -69 20 39 20
39 -41 70 c-45 77 -46 59 16 165 l26 46 -22 36 -22 37 -61 -107z"/>
<path d="M822 624 l-20 -39 39 -71 39 -72 -40 -70 -40 -70 17 -31 c10 -17 21
-31 25 -31 8 0 118 192 118 206 0 5 -27 56 -59 113 l-59 104 -20 -39z"/>
</g>
</svg>
